<svg width="128" height="128" viewBox="0 0 128 128" fill="none" xmlns="http://www.w3.org/2000/svg">
<path d="M0 20C0 8.95431 8.95431 0 20 0H108C119.046 0 128 8.95431 128 20V108C128 119.046 119.046 128 108 128H20C8.95431 128 0 119.046 0 108V20Z" fill="url(#paint0_radial_5_113)"/>
<path d="M122.178 5.89426C120.742 8.76911 97.8072 53.7587 64 64C30.1928 74.2413 7.25773 119.231 5.82156 122.106C9.44368 125.746 14.4587 128 20 128H108C119.046 128 128 119.046 128 108V20C128 14.4956 125.776 9.51064 122.178 5.89426Z" fill="url(#paint1_linear_5_113)"/>
<path d="M5.82156 122.106C7.25773 119.231 30.1928 74.2413 64 64C97.8072 53.7587 120.742 8.76911 122.178 5.89426C118.556 2.25359 113.541 0 108 0H20C8.95431 0 0 8.95431 0 20V108C0 113.504 2.22362 118.489 5.82156 122.106Z" fill="#191414"/>
<path d="M49.5342 32.8521C42.0228 28.3854 29.6329 27.9747 22.4623 30.1539C21.3105 30.5037 20.093 29.853 19.7443 28.6999C19.3953 27.5461 20.0446 26.3276 21.1968 25.9772C29.4284 23.4754 43.1116 23.9585 51.7589 29.0984C52.7948 29.7142 53.1342 31.0535 52.5204 32.0887C51.906 33.1259 50.5674 33.468 49.5342 32.8521ZM49.2881 39.4677C48.7612 40.3241 47.643 40.5926 46.789 40.0669C40.5271 36.2126 30.9778 35.0958 23.569 37.3477C22.6084 37.6382 21.5935 37.0961 21.3018 36.1357C21.1627 35.674 21.2121 35.1759 21.4392 34.7506C21.6663 34.3254 22.0525 34.0076 22.5132 33.8671C30.9765 31.2953 41.4979 32.5408 48.6904 36.9668C49.5444 37.4934 49.8132 38.6135 49.2881 39.4677ZM46.4367 45.8213C46.3375 45.9845 46.207 46.1266 46.0529 46.2393C45.8988 46.352 45.724 46.4331 45.5385 46.4781C45.353 46.523 45.1604 46.5309 44.9719 46.5013C44.7834 46.4716 44.6025 46.405 44.4397 46.3053C38.9677 42.9565 32.0801 42.2002 23.9687 44.0555C23.7828 44.0981 23.5904 44.1035 23.4024 44.0716C23.2145 44.0397 23.0346 43.971 22.8732 43.8695C22.7117 43.7679 22.5718 43.6356 22.4615 43.4799C22.3511 43.3242 22.2725 43.1483 22.23 42.9622C22.1873 42.776 22.1817 42.5832 22.2135 42.3949C22.2452 42.2065 22.3138 42.0263 22.4153 41.8645C22.5167 41.7027 22.649 41.5626 22.8046 41.4521C22.9603 41.3416 23.1361 41.2629 23.3222 41.2206C32.1986 39.189 39.8127 40.0633 45.9548 43.8214C46.1177 43.921 46.2593 44.0518 46.3716 44.2062C46.484 44.3606 46.5649 44.5357 46.6096 44.7214C46.6544 44.9071 46.6622 45.0998 46.6326 45.2885C46.6029 45.4773 46.5362 45.6583 46.4367 45.8213ZM35.7496 12.1667C22.8805 12.1667 12.4474 22.6131 12.4474 35.4996C12.4474 48.3873 22.8805 58.8333 35.7498 58.8333C48.6197 58.8333 59.0526 48.3873 59.0526 35.4996C59.0526 22.6134 48.6197 12.1667 35.7496 12.1667Z" fill="#1DB954"/>
<path d="M101.426 82.0742L91.7511 91.7494L82.076 82.0742L91.7511 72.3993L101.426 82.0742Z" fill="white"/>
<path d="M101.426 101.425L91.7511 111.099L82.076 101.425L91.7511 91.7494L101.426 101.425Z" fill="white"/>
<path d="M82.076 82.0745L72.4007 91.7499L62.7256 82.0745L72.4007 72.3998L82.076 82.0745Z" fill="white"/>
<path d="M120.775 82.0745L111.1 91.7499L101.425 82.0745L111.1 72.3998L120.775 82.0745Z" fill="white"/>
<defs>
<radialGradient id="paint0_radial_5_113" cx="0" cy="0" r="1" gradientUnits="userSpaceOnUse" gradientTransform="translate(64 -4.41488e-06) rotate(-90) scale(105.625)">
<stop stop-color="#161617"/>
<stop offset="1"/>
</radialGradient>
<linearGradient id="paint1_linear_5_113" x1="64" y1="0" x2="64" y2="128" gradientUnits="userSpaceOnUse">
<stop/>
<stop offset="0.0001" stop-color="#2E2F31"/>
<stop offset="1"/>
</linearGradient>
</defs>
</svg>
